<?xml version="1.0" encoding="UTF-8"?> <svg xmlns="http://www.w3.org/2000/svg" width="128.139" height="90.291" viewBox="0 0 128.139 90.291"><g id="Group_12407" data-name="Group 12407" transform="translate(-1061.133 -1427.709)"><g id="Group_12251" data-name="Group 12251" transform="translate(1106.035 1458.595)"><rect id="Rectangle_5162" data-name="Rectangle 5162" width="31.221" height="30.137" fill="#ffa146"></rect><rect id="Rectangle_5163" data-name="Rectangle 5163" width="3.923" height="24.779" transform="translate(2.647 2.551)" fill="#dd3e13"></rect><rect id="Rectangle_5164" data-name="Rectangle 5164" width="3.923" height="24.779" transform="translate(6.57 2.551)" fill="#dd3e13"></rect><rect id="Rectangle_5165" data-name="Rectangle 5165" width="3.923" height="24.779" transform="translate(10.492 2.551)" fill="#dd3e13"></rect><rect id="Rectangle_5166" data-name="Rectangle 5166" width="3.923" height="24.779" transform="translate(14.415 2.551)" fill="#dd3e13"></rect><rect id="Rectangle_5167" data-name="Rectangle 5167" width="3.923" height="24.779" transform="translate(18.321 2.551)" fill="#dd3e13"></rect><rect id="Rectangle_5168" data-name="Rectangle 5168" width="3.923" height="24.779" transform="translate(22.244 2.551)" fill="#dd3e13"></rect><rect id="Rectangle_5169" data-name="Rectangle 5169" width="2.264" height="24.779" transform="translate(26.167 2.551)" fill="#dd3e13"></rect><rect id="Rectangle_5170" data-name="Rectangle 5170" width="1.563" height="22.34" transform="translate(3.364 4.497)" fill="#ed7425"></rect><rect id="Rectangle_5171" data-name="Rectangle 5171" width="1.563" height="22.34" transform="translate(7.271 4.497)" fill="#ed7425"></rect><rect id="Rectangle_5172" data-name="Rectangle 5172" width="1.563" height="22.34" transform="translate(11.194 4.497)" fill="#ed7425"></rect><rect id="Rectangle_5173" data-name="Rectangle 5173" width="1.563" height="22.34" transform="translate(15.116 4.497)" fill="#ed7425"></rect><rect id="Rectangle_5174" data-name="Rectangle 5174" width="1.563" height="22.34" transform="translate(19.039 4.497)" fill="#ed7425"></rect><rect id="Rectangle_5175" data-name="Rectangle 5175" width="1.563" height="22.34" transform="translate(22.945 4.497)" fill="#ed7425"></rect><rect id="Rectangle_5176" data-name="Rectangle 5176" width="1.563" height="22.34" transform="translate(26.868 4.497)" fill="#ed7425"></rect><rect id="Rectangle_5177" data-name="Rectangle 5177" width="1.658" height="24.779" transform="translate(4.911 2.551)" fill="#ffa146"></rect><rect id="Rectangle_5178" data-name="Rectangle 5178" width="1.658" height="24.779" transform="translate(8.834 2.551)" fill="#ffa146"></rect><rect id="Rectangle_5179" data-name="Rectangle 5179" width="1.658" height="24.779" transform="translate(12.756 2.551)" fill="#ffa146"></rect><rect id="Rectangle_5180" data-name="Rectangle 5180" width="1.658" height="24.779" transform="translate(16.679 2.551)" fill="#ffa146"></rect><rect id="Rectangle_5181" data-name="Rectangle 5181" width="1.658" height="24.779" transform="translate(20.586 2.551)" fill="#ffa146"></rect><rect id="Rectangle_5182" data-name="Rectangle 5182" width="1.658" height="24.779" transform="translate(24.508 2.551)" fill="#ffa146"></rect></g><path id="Path_19770" data-name="Path 19770" d="M276.351,160.653l-21.813-.3L242.69,181.557l.59,14.59h31.094Z" transform="translate(820.978 1296.236)" fill="#aad3ef" fill-rule="evenodd"></path><path id="Path_19771" data-name="Path 19771" d="M270.291,189.142l-.207.144L250.2,160.36l21.686.287Z" transform="translate(825.443 1296.242)" fill="#85bfe9" fill-rule="evenodd"></path><rect id="Rectangle_5183" data-name="Rectangle 5183" width="86.424" height="4.226" transform="translate(1099.529 1495.078)"></rect><path id="Path_19772" data-name="Path 19772" d="M259.66,186.71h98.288a.606.606,0,0,1,.606.606v5.964a.606.606,0,0,1-.606.606H259.676a.606.606,0,0,1-.606-.606v-5.964a.606.606,0,0,1,.606-.606Z" transform="translate(830.717 1311.908)" fill="#1a2a3a"></path><rect id="Rectangle_5184" data-name="Rectangle 5184" width="3.046" height="29.356" transform="translate(1099.402 1465.723)" fill="#1a2a3a"></rect><path id="Path_19773" data-name="Path 19773" d="M259.618,180.51H358a.565.565,0,0,1,.558.558v5.485a.565.565,0,0,1-.558.558H259.618a.565.565,0,0,1-.558-.558v-5.485A.565.565,0,0,1,259.618,180.51Z" transform="translate(830.711 1308.222)" fill="#1a2a3a"></path><path id="Path_19774" data-name="Path 19774" d="M279.315,160.615a2.164,2.164,0,0,0-2.44-1.945H256.832c-2.36.1-2.472.654-3.093,1.706L241.11,183.768v26.087h0a.684.684,0,0,0,.686.7h37.727l-.207-49.957h0Zm-27.506,33.374-7.064.048V183.529l10.891-20.251c.7-1.387,1.068-1.467,2.121-1.451h17.03c.478.048.638.446.638,1.1l-.175,24.221a24.282,24.282,0,0,0-23.456,6.841Z" transform="translate(820.039 1295.237)" fill="#db1818" fill-rule="evenodd"></path><path id="Path_19775" data-name="Path 19775" d="M241.116,184.49v10.03h0a.684.684,0,0,0,.686.7h37.727l-.048-10.731H241.1Z" transform="translate(820.033 1310.588)" fill="#c11515" fill-rule="evenodd"></path><g id="Group_12252" data-name="Group 12252" transform="translate(1074.272 1490.757)"><path id="Path_19776" data-name="Path 19776" d="M264.632,181.78h-.51c-.1.016-.191.016-.287.032h-.319l-.159.032h-.175l-.191.032H262.8v.032l-.191.032h-.159l-.207.048-.175.032h-.112a1.684,1.684,0,0,1-.3.08h-.032a15.447,15.447,0,0,0-12.278,14.75h30.823a15.426,15.426,0,0,0-13.936-14.989h-.032a2.376,2.376,0,0,1-.335-.032h-.351a1.734,1.734,0,0,0-.239-.032h-.654Z" transform="translate(-249.34 -181.78)" fill="#a01111" fill-rule="evenodd"></path><path id="Path_19777" data-name="Path 19777" d="M272.664,187.222a12.645,12.645,0,0,1,3.7,8.579H251.09a12.65,12.65,0,0,1,21.59-8.579Z" transform="translate(-248.3 -180.749)" fill="#a01111" fill-rule="evenodd"></path></g><path id="Path_19778" data-name="Path 19778" d="M271.79,187.493a11.828,11.828,0,1,1-16.727,0A11.818,11.818,0,0,1,271.79,187.493Z" transform="translate(826.272 1310.312)" fill="#344453" fill-rule="evenodd"></path><path id="Path_19779" data-name="Path 19779" d="M257.177,197.367a5.48,5.48,0,0,1,7.749-7.749Z" transform="translate(828.639 1312.684)" fill="#1a2a3a" fill-rule="evenodd"></path><path id="Path_19780" data-name="Path 19780" d="M270.5,186.2a11.828,11.828,0,0,1-16.727,16.727Z" transform="translate(827.565 1311.605)" fill="#1a2a3a" fill-rule="evenodd"></path><path id="Path_19781" data-name="Path 19781" d="M264.329,189.01a5.48,5.48,0,0,1-7.749,7.749Z" transform="translate(829.236 1313.275)" fill="#344453" fill-rule="evenodd"></path><path id="Path_19782" data-name="Path 19782" d="M262.4,189.9a3.49,3.49,0,1,1-4.943,4.927Z" transform="translate(829.759 1313.805)" fill="#aad3ef" fill-rule="evenodd"></path><path id="Path_19783" data-name="Path 19783" d="M257.853,195.221a3.49,3.49,0,1,1,4.943-4.927Z" transform="translate(829.382 1313.427)" fill="#e1effa" fill-rule="evenodd"></path><path id="Path_19784" data-name="Path 19784" d="M260.98,190.55a2.03,2.03,0,1,1-2.87,2.87Z" transform="translate(830.146 1314.191)" fill="#1a2a3a" fill-rule="evenodd"></path><path id="Path_19785" data-name="Path 19785" d="M258.333,193.643a2.03,2.03,0,0,1,2.87-2.87Z" transform="translate(829.923 1313.968)" fill="#344453" fill-rule="evenodd"></path><g id="Group_12253" data-name="Group 12253" transform="translate(1151.193 1490.757)"><path id="Path_19786" data-name="Path 19786" d="M313.111,181.78h.51c.1.016.191.016.287.032h.319l.159.032h.175l.191.032h.191v.032l.191.032h.159l.207.048.175.032h.112a1.682,1.682,0,0,0,.3.08h.032a15.447,15.447,0,0,1,12.278,14.75H297.58a15.426,15.426,0,0,1,13.936-14.989h.032a2.376,2.376,0,0,0,.335-.032h.351l.239-.032h.654Z" transform="translate(-297.58 -181.78)" fill="#a01111" fill-rule="evenodd"></path><path id="Path_19787" data-name="Path 19787" d="M320.894,187.222a12.615,12.615,0,0,1,3.7,8.579H299.32a12.65,12.65,0,0,1,21.59-8.579Z" transform="translate(-296.545 -180.749)" fill="#a01111" fill-rule="evenodd"></path></g><path id="Path_19788" data-name="Path 19788" d="M303.293,204.22a11.828,11.828,0,1,0,0-16.727A11.818,11.818,0,0,0,303.293,204.22Z" transform="translate(854.947 1310.312)" fill="#344453" fill-rule="evenodd"></path><path id="Path_19789" data-name="Path 19789" d="M302,202.927A11.828,11.828,0,0,0,318.727,186.2Z" transform="translate(856.241 1311.605)" fill="#1a2a3a" fill-rule="evenodd"></path><path id="Path_19790" data-name="Path 19790" d="M313.157,189.608a5.48,5.48,0,0,0-7.749,7.749Z" transform="translate(857.314 1312.678)" fill="#1a2a3a" fill-rule="evenodd"></path><path id="Path_19791" data-name="Path 19791" d="M304.81,196.769a5.48,5.48,0,0,0,7.749-7.749Z" transform="translate(857.911 1313.281)" fill="#344453" fill-rule="evenodd"></path><path id="Path_19792" data-name="Path 19792" d="M310.627,189.9a3.484,3.484,0,1,1-4.927,4.927Z" transform="translate(858.44 1313.805)" fill="#aad3ef" fill-rule="evenodd"></path><path id="Path_19793" data-name="Path 19793" d="M306.069,195.221A3.484,3.484,0,1,1,311,190.293Z" transform="translate(858.056 1313.427)" fill="#e1effa" fill-rule="evenodd"></path><path id="Path_19794" data-name="Path 19794" d="M309.21,190.55a2.03,2.03,0,0,1-2.87,2.87Z" transform="translate(858.821 1314.191)" fill="#1a2a3a" fill-rule="evenodd"></path><path id="Path_19795" data-name="Path 19795" d="M306.563,193.643a2.03,2.03,0,0,1,2.87-2.87Z" transform="translate(858.598 1313.968)" fill="#344453" fill-rule="evenodd"></path><g id="Group_12254" data-name="Group 12254" transform="translate(1138.006 1458.595)"><rect id="Rectangle_5185" data-name="Rectangle 5185" width="31.221" height="30.137" fill="#ffa146"></rect><rect id="Rectangle_5186" data-name="Rectangle 5186" width="3.923" height="24.779" transform="translate(2.663 2.551)" fill="#dd3e13"></rect><rect id="Rectangle_5187" data-name="Rectangle 5187" width="3.923" height="24.779" transform="translate(6.585 2.551)" fill="#dd3e13"></rect><rect id="Rectangle_5188" data-name="Rectangle 5188" width="3.923" height="24.779" transform="translate(10.492 2.551)" fill="#dd3e13"></rect><rect id="Rectangle_5189" data-name="Rectangle 5189" width="3.923" height="24.779" transform="translate(14.415 2.551)" fill="#dd3e13"></rect><rect id="Rectangle_5190" data-name="Rectangle 5190" width="3.923" height="24.779" transform="translate(18.337 2.551)" fill="#dd3e13"></rect><rect id="Rectangle_5191" data-name="Rectangle 5191" width="3.923" height="24.779" transform="translate(22.26 2.551)" fill="#dd3e13"></rect><rect id="Rectangle_5192" data-name="Rectangle 5192" width="2.264" height="24.779" transform="translate(26.167 2.551)" fill="#dd3e13"></rect><rect id="Rectangle_5193" data-name="Rectangle 5193" width="1.563" height="22.34" transform="translate(3.365 4.497)" fill="#ed7425"></rect><rect id="Rectangle_5194" data-name="Rectangle 5194" width="1.563" height="22.34" transform="translate(7.287 4.497)" fill="#ed7425"></rect><rect id="Rectangle_5195" data-name="Rectangle 5195" width="1.563" height="22.34" transform="translate(11.21 4.497)" fill="#ed7425"></rect><rect id="Rectangle_5196" data-name="Rectangle 5196" width="1.563" height="22.34" transform="translate(15.116 4.497)" fill="#ed7425"></rect><rect id="Rectangle_5197" data-name="Rectangle 5197" width="1.563" height="22.34" transform="translate(19.039 4.497)" fill="#ed7425"></rect><rect id="Rectangle_5198" data-name="Rectangle 5198" width="1.563" height="22.34" transform="translate(22.961 4.497)" fill="#ed7425"></rect><rect id="Rectangle_5199" data-name="Rectangle 5199" width="1.563" height="22.34" transform="translate(26.884 4.497)" fill="#ed7425"></rect><rect id="Rectangle_5200" data-name="Rectangle 5200" width="1.658" height="24.779" transform="translate(4.927 2.551)" fill="#ffa146"></rect><rect id="Rectangle_5201" data-name="Rectangle 5201" width="1.658" height="24.779" transform="translate(8.85 2.551)" fill="#ffa146"></rect><rect id="Rectangle_5202" data-name="Rectangle 5202" width="1.658" height="24.779" transform="translate(12.756 2.551)" fill="#ffa146"></rect><rect id="Rectangle_5203" data-name="Rectangle 5203" width="1.658" height="24.779" transform="translate(16.679 2.551)" fill="#ffa146"></rect><rect id="Rectangle_5204" data-name="Rectangle 5204" width="1.658" height="24.779" transform="translate(20.602 2.551)" fill="#ffa146"></rect><rect id="Rectangle_5205" data-name="Rectangle 5205" width="1.658" height="24.779" transform="translate(24.524 2.551)" fill="#ffa146"></rect></g><g id="Group_12255" data-name="Group 12255" transform="translate(1118.473 1427.709)"><rect id="Rectangle_5206" data-name="Rectangle 5206" width="31.221" height="30.137" fill="#ffa146"></rect><rect id="Rectangle_5207" data-name="Rectangle 5207" width="3.923" height="24.779" transform="translate(2.663 2.551)" fill="#dd3e13"></rect><rect id="Rectangle_5208" data-name="Rectangle 5208" width="3.923" height="24.779" transform="translate(6.585 2.551)" fill="#dd3e13"></rect><rect id="Rectangle_5209" data-name="Rectangle 5209" width="3.923" height="24.779" transform="translate(10.508 2.551)" fill="#dd3e13"></rect><rect id="Rectangle_5210" data-name="Rectangle 5210" width="3.923" height="24.779" transform="translate(14.415 2.551)" fill="#dd3e13"></rect><rect id="Rectangle_5211" data-name="Rectangle 5211" width="3.923" height="24.779" transform="translate(18.337 2.551)" fill="#dd3e13"></rect><rect id="Rectangle_5212" data-name="Rectangle 5212" width="3.923" height="24.779" transform="translate(22.26 2.551)" fill="#dd3e13"></rect><rect id="Rectangle_5213" data-name="Rectangle 5213" width="2.264" height="24.779" transform="translate(26.182 2.551)" fill="#dd3e13"></rect><rect id="Rectangle_5214" data-name="Rectangle 5214" width="1.563" height="22.34" transform="translate(3.365 4.497)" fill="#ed7425"></rect><rect id="Rectangle_5215" data-name="Rectangle 5215" width="1.563" height="22.34" transform="translate(7.287 4.497)" fill="#ed7425"></rect><rect id="Rectangle_5216" data-name="Rectangle 5216" width="1.563" height="22.34" transform="translate(11.21 4.497)" fill="#ed7425"></rect><rect id="Rectangle_5217" data-name="Rectangle 5217" width="1.563" height="22.34" transform="translate(15.132 4.497)" fill="#ed7425"></rect><rect id="Rectangle_5218" data-name="Rectangle 5218" width="1.563" height="22.34" transform="translate(19.039 4.497)" fill="#ed7425"></rect><rect id="Rectangle_5219" data-name="Rectangle 5219" width="1.563" height="22.34" transform="translate(22.961 4.497)" fill="#ed7425"></rect><rect id="Rectangle_5220" data-name="Rectangle 5220" width="1.563" height="22.34" transform="translate(26.884 4.497)" fill="#ed7425"></rect><rect id="Rectangle_5221" data-name="Rectangle 5221" width="1.658" height="24.779" transform="translate(4.927 2.551)" fill="#ffa146"></rect><rect id="Rectangle_5222" data-name="Rectangle 5222" width="1.658" height="24.779" transform="translate(8.85 2.551)" fill="#ffa146"></rect><rect id="Rectangle_5223" data-name="Rectangle 5223" width="1.658" height="24.779" transform="translate(12.772 2.551)" fill="#ffa146"></rect><rect id="Rectangle_5224" data-name="Rectangle 5224" width="1.658" height="24.779" transform="translate(16.679 2.551)" fill="#ffa146"></rect><rect id="Rectangle_5225" data-name="Rectangle 5225" width="1.658" height="24.779" transform="translate(20.602 2.551)" fill="#ffa146"></rect><rect id="Rectangle_5226" data-name="Rectangle 5226" width="1.658" height="24.779" transform="translate(24.524 2.551)" fill="#ffa146"></rect></g><rect id="Rectangle_5227" data-name="Rectangle 5227" width="31.221" height="0.765" transform="translate(1118.473 1457.83)" fill="#dd3e13"></rect><rect id="Rectangle_5228" data-name="Rectangle 5228" width="0.765" height="30.137" transform="translate(1137.24 1458.595)" fill="#dd3e13"></rect></g></svg> 