<?xml version="1.0" encoding="UTF-8"?> <svg xmlns="http://www.w3.org/2000/svg" width="124.729" height="87.612" viewBox="0 0 124.729 87.612"><g id="Group_12408" data-name="Group 12408" transform="translate(-1061.135 -1639.139)"><g id="Group_12351" data-name="Group 12351" transform="translate(-11726.977 5512.896)"><g id="Group_12305" data-name="Group 12305" transform="translate(12788.11 -3873.758)"><path id="Path_19982" data-name="Path 19982" d="M16.11,42.109,78.466,29.83l62.371,12.279v75.333H16.11Z" transform="translate(-16.11 -29.83)" fill="#db1818" fill-rule="evenodd"></path><rect id="Rectangle_5378" data-name="Rectangle 5378" width="118.565" height="64.482" transform="translate(2.934 23.129)" fill="#1a2a3a"></rect><rect id="Rectangle_5379" data-name="Rectangle 5379" width="6.24" height="64.482" transform="translate(2.934 23.129)"></rect><rect id="Rectangle_5380" data-name="Rectangle 5380" width="6.24" height="64.482" transform="translate(115.258 23.129)"></rect><path id="Path_19983" data-name="Path 19983" d="M16.11,42.109H140.837L78.466,29.83Z" transform="translate(-16.11 -29.83)" fill="#c10505" fill-rule="evenodd"></path><rect id="Rectangle_5381" data-name="Rectangle 5381" width="118.565" height="6.24" transform="translate(2.934 23.129)"></rect><path id="Path_19984" data-name="Path 19984" d="M22.02,48.75l10.509,6.458v51.785H22.02Z" transform="translate(-12.846 -19.381)" fill="#20354a" fill-rule="evenodd"></path><g id="Group_12299" data-name="Group 12299" transform="translate(12.884 48.199)"><g id="Group_12295" data-name="Group 12295" transform="translate(12.061)"><g id="Group_12293" data-name="Group 12293" transform="translate(17.836)"><rect id="Rectangle_5382" data-name="Rectangle 5382" width="17.153" height="15.383" transform="translate(0.217)" fill="#ffa146"></rect><rect id="Rectangle_5383" data-name="Rectangle 5383" width="17.603" height="2.561" fill="#ffa146"></rect><path id="Path_19985" data-name="Path 19985" d="M60.978,75.352H54.536L43.81,62.53H60.978Z" transform="translate(-43.593 -59.969)" fill="#ed7425" fill-rule="evenodd"></path><path id="Path_19986" data-name="Path 19986" d="M54.594,60.88H52.7v3.539l.4-.186.373.171.512-.295.605.31Z" transform="translate(-38.683 -60.88)" fill="#dd3e13" fill-rule="evenodd"></path><path id="Path_19987" data-name="Path 19987" d="M46.654,60.88H44.76v3.539l.4-.186.373.171.512-.295.605.31Z" transform="translate(-43.068 -60.88)" fill="#dd3e13" fill-rule="evenodd"></path></g><g id="Group_12294" data-name="Group 12294"><rect id="Rectangle_5384" data-name="Rectangle 5384" width="17.153" height="15.383" transform="translate(0.217)" fill="#ffa146"></rect><rect id="Rectangle_5385" data-name="Rectangle 5385" width="17.603" height="2.561" fill="#ffa146"></rect><path id="Path_19988" data-name="Path 19988" d="M49.488,75.352H43.046L32.32,62.53H49.488Z" transform="translate(-32.103 -59.969)" fill="#ed7425" fill-rule="evenodd"></path><path id="Path_19989" data-name="Path 19989" d="M43.1,60.88H41.21v3.539l.419-.186.357.171.512-.295.605.31Z" transform="translate(-27.193 -60.88)" fill="#dd3e13" fill-rule="evenodd"></path><path id="Path_19990" data-name="Path 19990" d="M35.164,60.88H33.27v3.539l.419-.186.357.171.512-.295.605.31Z" transform="translate(-31.578 -60.88)" fill="#dd3e13" fill-rule="evenodd"></path></g></g><g id="Group_12296" data-name="Group 12296" transform="translate(0 15.973)"><rect id="Rectangle_5386" data-name="Rectangle 5386" width="24.278" height="23.44" fill="#ffa146"></rect><rect id="Rectangle_5387" data-name="Rectangle 5387" width="3.043" height="19.28" transform="translate(2.08 1.987)" fill="#dd3e13"></rect><rect id="Rectangle_5388" data-name="Rectangle 5388" width="3.043" height="19.28" transform="translate(5.123 1.987)" fill="#dd3e13"></rect><rect id="Rectangle_5389" data-name="Rectangle 5389" width="3.043" height="19.28" transform="translate(8.165 1.987)" fill="#dd3e13"></rect><rect id="Rectangle_5390" data-name="Rectangle 5390" width="3.043" height="19.28" transform="translate(11.223 1.987)" fill="#dd3e13"></rect><rect id="Rectangle_5391" data-name="Rectangle 5391" width="3.043" height="19.28" transform="translate(14.266 1.987)" fill="#dd3e13"></rect><rect id="Rectangle_5392" data-name="Rectangle 5392" width="3.043" height="19.28" transform="translate(17.308 1.987)" fill="#dd3e13"></rect><rect id="Rectangle_5393" data-name="Rectangle 5393" width="1.77" height="19.28" transform="translate(20.366 1.987)" fill="#dd3e13"></rect><rect id="Rectangle_5394" data-name="Rectangle 5394" width="1.211" height="17.386" transform="translate(2.623 3.493)" fill="#ed7425"></rect><rect id="Rectangle_5395" data-name="Rectangle 5395" width="1.211" height="17.386" transform="translate(5.666 3.493)" fill="#ed7425"></rect><rect id="Rectangle_5396" data-name="Rectangle 5396" width="1.211" height="17.386" transform="translate(8.724 3.493)" fill="#ed7425"></rect><rect id="Rectangle_5397" data-name="Rectangle 5397" width="1.211" height="17.386" transform="translate(11.766 3.493)" fill="#ed7425"></rect><rect id="Rectangle_5398" data-name="Rectangle 5398" width="1.211" height="17.386" transform="translate(14.809 3.493)" fill="#ed7425"></rect><rect id="Rectangle_5399" data-name="Rectangle 5399" width="1.211" height="17.386" transform="translate(17.867 3.493)" fill="#ed7425"></rect><rect id="Rectangle_5400" data-name="Rectangle 5400" width="1.211" height="17.386" transform="translate(20.909 3.493)" fill="#ed7425"></rect><rect id="Rectangle_5401" data-name="Rectangle 5401" width="1.288" height="19.28" transform="translate(3.834 1.987)" fill="#ffa146"></rect><rect id="Rectangle_5402" data-name="Rectangle 5402" width="1.288" height="19.28" transform="translate(6.877 1.987)" fill="#ffa146"></rect><rect id="Rectangle_5403" data-name="Rectangle 5403" width="1.288" height="19.28" transform="translate(9.935 1.987)" fill="#ffa146"></rect><rect id="Rectangle_5404" data-name="Rectangle 5404" width="1.288" height="19.28" transform="translate(12.977 1.987)" fill="#ffa146"></rect><rect id="Rectangle_5405" data-name="Rectangle 5405" width="1.288" height="19.28" transform="translate(16.035 1.987)" fill="#ffa146"></rect><rect id="Rectangle_5406" data-name="Rectangle 5406" width="1.288" height="19.28" transform="translate(19.078 1.987)" fill="#ffa146"></rect></g><g id="Group_12297" data-name="Group 12297" transform="translate(24.883 15.973)"><rect id="Rectangle_5407" data-name="Rectangle 5407" width="24.278" height="23.44" fill="#ffa146"></rect><rect id="Rectangle_5408" data-name="Rectangle 5408" width="3.043" height="19.28" transform="translate(2.065 1.987)" fill="#dd3e13"></rect><rect id="Rectangle_5409" data-name="Rectangle 5409" width="3.043" height="19.28" transform="translate(5.107 1.987)" fill="#dd3e13"></rect><rect id="Rectangle_5410" data-name="Rectangle 5410" width="3.043" height="19.28" transform="translate(8.165 1.987)" fill="#dd3e13"></rect><rect id="Rectangle_5411" data-name="Rectangle 5411" width="3.043" height="19.28" transform="translate(11.208 1.987)" fill="#dd3e13"></rect><rect id="Rectangle_5412" data-name="Rectangle 5412" width="3.043" height="19.28" transform="translate(14.266 1.987)" fill="#dd3e13"></rect><rect id="Rectangle_5413" data-name="Rectangle 5413" width="3.043" height="19.28" transform="translate(17.308 1.987)" fill="#dd3e13"></rect><rect id="Rectangle_5414" data-name="Rectangle 5414" width="1.77" height="19.28" transform="translate(20.351 1.987)" fill="#dd3e13"></rect><rect id="Rectangle_5415" data-name="Rectangle 5415" width="1.211" height="17.386" transform="translate(2.623 3.493)" fill="#ed7425"></rect><rect id="Rectangle_5416" data-name="Rectangle 5416" width="1.211" height="17.386" transform="translate(5.666 3.493)" fill="#ed7425"></rect><rect id="Rectangle_5417" data-name="Rectangle 5417" width="1.211" height="17.386" transform="translate(8.708 3.493)" fill="#ed7425"></rect><rect id="Rectangle_5418" data-name="Rectangle 5418" width="1.211" height="17.386" transform="translate(11.766 3.493)" fill="#ed7425"></rect><rect id="Rectangle_5419" data-name="Rectangle 5419" width="1.211" height="17.386" transform="translate(14.809 3.493)" fill="#ed7425"></rect><rect id="Rectangle_5420" data-name="Rectangle 5420" width="1.211" height="17.386" transform="translate(17.851 3.493)" fill="#ed7425"></rect><rect id="Rectangle_5421" data-name="Rectangle 5421" width="1.211" height="17.386" transform="translate(20.909 3.493)" fill="#ed7425"></rect><rect id="Rectangle_5422" data-name="Rectangle 5422" width="1.288" height="19.28" transform="translate(3.834 1.987)" fill="#ffa146"></rect><rect id="Rectangle_5423" data-name="Rectangle 5423" width="1.288" height="19.28" transform="translate(6.877 1.987)" fill="#ffa146"></rect><rect id="Rectangle_5424" data-name="Rectangle 5424" width="1.288" height="19.28" transform="translate(9.919 1.987)" fill="#ffa146"></rect><rect id="Rectangle_5425" data-name="Rectangle 5425" width="1.288" height="19.28" transform="translate(12.977 1.987)" fill="#ffa146"></rect><rect id="Rectangle_5426" data-name="Rectangle 5426" width="1.288" height="19.28" transform="translate(16.02 1.987)" fill="#ffa146"></rect><rect id="Rectangle_5427" data-name="Rectangle 5427" width="1.288" height="19.28" transform="translate(19.062 1.987)" fill="#ffa146"></rect></g><rect id="Rectangle_5428" data-name="Rectangle 5428" width="34.958" height="0.59" transform="translate(12.279 15.383)" fill="#dd3e13"></rect><rect id="Rectangle_5429" data-name="Rectangle 5429" width="0.59" height="23.44" transform="translate(24.293 15.973)" fill="#dd3e13"></rect><g id="Group_12298" data-name="Group 12298" transform="translate(49.472 24.03)"><rect id="Rectangle_5430" data-name="Rectangle 5430" width="17.153" height="15.383" transform="translate(0.233)" fill="#ffa146"></rect><rect id="Rectangle_5431" data-name="Rectangle 5431" width="17.603" height="2.561" fill="#ffa146"></rect><path id="Path_19991" data-name="Path 19991" d="M73.583,90.832H67.141L56.43,78.01H73.583Z" transform="translate(-56.197 -75.449)" fill="#ed7425" fill-rule="evenodd"></path><path id="Path_19992" data-name="Path 19992" d="M67.2,76.36H65.32V79.9l.4-.186.373.171.5-.295.605.31Z" transform="translate(-51.287 -76.36)" fill="#dd3e13" fill-rule="evenodd"></path><path id="Path_19993" data-name="Path 19993" d="M59.258,76.36H57.38V79.9l.4-.186.373.171.512-.295.59.31Z" transform="translate(-55.672 -76.36)" fill="#dd3e13" fill-rule="evenodd"></path></g></g><path id="Path_19994" data-name="Path 19994" d="M22.02,48.75l10.509,6.458h85.081L128.1,48.75Z" transform="translate(-12.846 -19.381)" fill="#344453" fill-rule="evenodd"></path><path id="Path_19995" data-name="Path 19995" d="M94.094,48.75,83.6,55.208v51.785H94.094Z" transform="translate(21.165 -19.381)" fill="#20354a" fill-rule="evenodd"></path><g id="Group_12304" data-name="Group 12304" transform="translate(80.425 70.63)"><rect id="Rectangle_5432" data-name="Rectangle 5432" width="14.607" height="16.982" fill="#ed7425"></rect><rect id="Rectangle_5433" data-name="Rectangle 5433" width="7.311" height="16.982" fill="#ffa146"></rect><g id="Group_12300" data-name="Group 12300" transform="translate(1.118 11.673)"><path id="Path_19996" data-name="Path 19996" d="M69.975,84.573v2.173h-.792V84.573H68.64l.466-.869.466-.854.481.854.466.869Z" transform="translate(-68.64 -82.85)" fill-rule="evenodd"></path><path id="Path_19997" data-name="Path 19997" d="M71.36,84.573v2.173h-.792V84.573H70.01l.481-.869.466-.854.466.854.481.869Z" transform="translate(-67.883 -82.85)" fill-rule="evenodd"></path><rect id="Rectangle_5434" data-name="Rectangle 5434" width="3.493" height="0.31" transform="translate(0.264 3.896)"></rect></g><g id="Group_12301" data-name="Group 12301" transform="translate(1.257)"><path id="Path_19998" data-name="Path 19998" d="M68.73,75.33h1.723v3.213l-.373-.171-.341.171-.466-.279-.543.279Z" transform="translate(-68.73 -75.33)" fill="#dd3e13" fill-rule="evenodd"></path><path id="Path_19999" data-name="Path 19999" d="M75.41,75.33h1.708v3.213l-.357-.171-.341.171-.466-.279-.543.279Z" transform="translate(-65.041 -75.33)" fill="#dd3e13" fill-rule="evenodd"></path></g><g id="Group_12303" data-name="Group 12303" transform="translate(14.918 3.881)"><rect id="Rectangle_5435" data-name="Rectangle 5435" width="14.607" height="13.101" fill="#ed7425"></rect><rect id="Rectangle_5436" data-name="Rectangle 5436" width="7.311" height="13.101" fill="#ffa146"></rect><path id="Path_20000" data-name="Path 20000" d="M79.59,84.573v2.173H78.8V84.573H78.24l.481-.869.466-.854.481.854.466.869Z" transform="translate(-77.138 -75.057)" fill-rule="evenodd"></path><path id="Path_20001" data-name="Path 20001" d="M80.955,84.573v2.173h-.792V84.573H79.62L80.1,83.7l.466-.854.466.854.481.869Z" transform="translate(-76.376 -75.057)" fill-rule="evenodd"></path><rect id="Rectangle_5437" data-name="Rectangle 5437" width="3.493" height="0.31" transform="translate(1.366 11.689)"></rect><g id="Group_12302" data-name="Group 12302" transform="translate(1.257)"><path id="Path_20002" data-name="Path 20002" d="M78.34,77.83h1.723v3.229l-.373-.171-.342.155-.466-.279-.543.295Z" transform="translate(-78.34 -77.83)" fill="#dd3e13" fill-rule="evenodd"></path><path id="Path_20003" data-name="Path 20003" d="M85.02,77.83h1.708v3.229l-.373-.171-.326.155-.466-.279-.543.295Z" transform="translate(-74.651 -77.83)" fill="#dd3e13" fill-rule="evenodd"></path></g></g><rect id="Rectangle_5438" data-name="Rectangle 5438" width="0.31" height="13.101" transform="translate(14.607 3.881)" fill="#dd3e13"></rect></g></g></g></g></svg> 